<?xml version="1.0" encoding="utf-8"?>
<!-- Generator: Adobe Illustrator 15.1.0, SVG Export Plug-In  -->
<!DOCTYPE svg PUBLIC "-//W3C//DTD SVG 1.1//EN" "http://www.w3.org/Graphics/SVG/1.1/DTD/svg11.dtd" [
	<!ENTITY ns_flows "http://ns.adobe.com/Flows/1.0/">
]>
<svg version="1.1"
	 xmlns="http://www.w3.org/2000/svg" xmlns:xlink="http://www.w3.org/1999/xlink" xmlns:a="http://ns.adobe.com/AdobeSVGViewerExtensions/3.0/"
	 x="0px" y="0px" width="202px" height="51px" viewBox="0 -0.315 202 51" enable-background="new 0 -0.315 202 51"
	 xml:space="preserve">
<defs>
</defs>
<g>
	<g>
		<path fill="#29ABE2" d="M11.054,31.617V30.12c-1.182,1.31-2.812,1.817-5.176,1.817C2.651,31.938,0,30.084,0,26.697v-0.063
			c0-3.738,2.843-5.463,6.9-5.463c1.725,0,2.971,0.287,4.185,0.703v-0.287c0-2.013-1.246-3.131-3.674-3.131
			c-1.853,0-3.163,0.352-4.728,0.926L1.47,15.676c1.885-0.831,3.737-1.374,6.645-1.374c5.303,0,7.635,2.748,7.635,7.38v9.935H11.054
			z M11.149,24.717c-0.831-0.383-1.917-0.639-3.099-0.639c-2.077,0-3.355,0.831-3.355,2.364v0.063c0,1.311,1.086,2.077,2.652,2.077
			c2.268,0,3.802-0.714,3.802-3.004V24.717z"/>
		<path fill="#29ABE2" d="M34,14.685v-0.198c0-1.278,0.658-1.853,1.776-1.853c0.831,0,2.224,0.159,2.224,0.415V9.024
			c0-0.288-1.54-0.479-3.074-0.479C31.508,8.545,30,10.27,30,14.04v0.645h-6v-0.198c0-1.278,0.658-1.853,1.776-1.853
			c0.831,0,1.224,0.159,2.224,0.415V9.024c-1-0.288-2.04-0.479-3.574-0.479C21.008,8.545,19,10.27,19,14.04v0.645h-3.963
			c0.985,1,1.676,3,2.049,4H19v13h5v-13h6v13h4v-13h3.861c0.68-1,1.707-3,2.993-4H34z"/>
		<path fill="#29ABE2" d="M47.882,32.473c-5.303,0-9.232-3.929-9.232-8.849V23.56c0-4.92,3.961-8.913,9.296-8.913
			c5.303,0,9.233,3.929,9.233,8.849v0.064C57.179,28.479,53.217,32.473,47.882,32.473z M52.387,23.56
			c0-2.524-1.821-4.728-4.505-4.728c-2.779,0-4.44,2.141-4.44,4.664v0.064c0,2.524,1.821,4.729,4.504,4.729
			c2.78,0,4.441-2.141,4.441-4.664V23.56z"/>
		<g>
			<path fill="#29ABE2" d="M71.004,14.91c-0.631-0.202-1.612-0.298-2.399-0.263c-2.13,0-3.604,0.695-5.604,3.06v-3.022h-4v17h4
				v-5.21c0-3.771,1.952-6.573,4.743-6.875C68.348,17.632,69.685,16.064,71.004,14.91z"/>
		</g>
		<path fill="#29ABE2" d="M82,11.387v5.106c-1-1.375-2.682-1.846-5.27-1.846c-4.057,0-7.73,3.13-7.73,8.849v0.064
			c0,5.719,3.737,8.85,7.73,8.85c2.524,0,4.27-0.472,5.27-2.069v1.345h5V7.622L82,11.387z M82,23.56
			c0,2.843-1.716,4.729-3.984,4.729S74,26.403,74,23.56v-0.064c0-2.875,1.748-4.728,4.016-4.728S82,20.652,82,23.496V23.56z"/>
		<path fill="#29ABE2" d="M94.664,32.09V14.966h4.855V32.09H94.664z M99.5,11.416c0-1.341-1.087-2.428-2.428-2.428
			s-2.428,1.087-2.428,2.428s1.087,2.428,2.428,2.428S99.5,12.757,99.5,11.416z"/>
		<path fill="#29ABE2" d="M107.883,32.377c-2.971,0-4.984-1.182-4.984-5.144V19.12h-2.044v-4.154h2.044v-2.957l4.856-3.195v6.151
			h4.024v4.154h-4.024v7.315c0,1.118,0.479,1.661,1.565,1.661c0.895,0,1.693-0.223,2.396-0.606v3.898
			C110.693,31.994,109.512,32.377,107.883,32.377z"/>
	</g>
</g>
<rect x="118.24" y="3.278" transform="matrix(0.9962 0.0876 -0.0876 0.9962 2.6285 -13.6206)" fill="#1A1A1A" width="76.607" height="39.735"/>
<polygon fill="#39B54A" points="169.699,36.204 182.254,39.974 202,26.004 183.648,50.499 "/>
<path fill="#FFFFFF" d="M183.927,14.685l-4.019,8.115l-1.338-9.115h-5.164l-4.438,9.115l-1.043-8.115h-6.263l0.506,3.072
	c-1.35-2.261-3.896-3.832-7.179-3.832c-3.989,0-7.809,2.262-9.785,5.42l0.846-4.66h-6.035l-1.367,7.755l-4.92-7.755h-5.428
	l-3.129,17h5.68l1.455-8.256l5.27,8.256h5.344l0.859-4.68c0.869,3.131,3.896,5.355,7.877,5.355c5.459,0,10.41-4.261,11.404-9.366
	l1.326,8.69h5.215l4.712-8.896l1.575,8.896h5.215l8.983-17H183.927z M156.913,23.179c-0.37,2.096-2.13,3.987-4.405,3.987
	c-2.3,0-3.414-1.917-3.04-4.039l0.009-0.05c0.369-2.097,2.13-3.988,4.404-3.988c2.301,0,3.415,1.917,3.041,4.039L156.913,23.179z"/>
</svg>
